<mxfile host="app.diagrams.net" modified="2024-04-01T13:13:24.175Z" agent="Mozilla/5.0 (Windows NT 10.0; Win64; x64) AppleWebKit/537.36 (KHTML, like Gecko) Chrome/118.0.0.0 Safari/537.36" etag="7zSwlKfDCz5uW3Xy0YK0" version="24.2.1" type="github">
  <diagram name="第 1 页" id="GwWL48kWU6Y4ENLvr92-">
    <mxGraphModel dx="1221" dy="662" grid="1" gridSize="10" guides="1" tooltips="1" connect="1" arrows="1" fold="1" page="1" pageScale="1" pageWidth="827" pageHeight="1169" math="0" shadow="0">
      <root>
        <mxCell id="0" />
        <mxCell id="1" parent="0" />
        <mxCell id="ZooSclxC4xJhElzUtcn8-1" value="" style="html=1;dashed=0;whiteSpace=wrap;shape=partialRectangle;right=0;" vertex="1" parent="1">
          <mxGeometry x="100" y="110" width="100" height="30" as="geometry" />
        </mxCell>
        <mxCell id="ZooSclxC4xJhElzUtcn8-3" value="" style="ellipse;whiteSpace=wrap;html=1;" vertex="1" parent="1">
          <mxGeometry x="100" y="310" width="130" height="90" as="geometry" />
        </mxCell>
        <mxCell id="ZooSclxC4xJhElzUtcn8-4" value="" style="rounded=0;whiteSpace=wrap;html=1;" vertex="1" parent="1">
          <mxGeometry x="100" y="190" width="120" height="50" as="geometry" />
        </mxCell>
        <mxCell id="ZooSclxC4xJhElzUtcn8-9" style="edgeStyle=orthogonalEdgeStyle;rounded=0;orthogonalLoop=1;jettySize=auto;html=1;entryX=0;entryY=0.5;entryDx=0;entryDy=0;" edge="1" parent="1" source="ZooSclxC4xJhElzUtcn8-5" target="ZooSclxC4xJhElzUtcn8-6">
          <mxGeometry relative="1" as="geometry">
            <Array as="points">
              <mxPoint x="500" y="235" />
            </Array>
          </mxGeometry>
        </mxCell>
        <mxCell id="ZooSclxC4xJhElzUtcn8-13" value="各类出入库单据号" style="edgeLabel;html=1;align=center;verticalAlign=middle;resizable=0;points=[];" vertex="1" connectable="0" parent="ZooSclxC4xJhElzUtcn8-9">
          <mxGeometry x="0.0167" relative="1" as="geometry">
            <mxPoint x="-10" y="-52" as="offset" />
          </mxGeometry>
        </mxCell>
        <mxCell id="ZooSclxC4xJhElzUtcn8-5" value="ERP系统" style="rounded=0;whiteSpace=wrap;html=1;" vertex="1" parent="1">
          <mxGeometry x="450" y="60" width="120" height="50" as="geometry" />
        </mxCell>
        <mxCell id="ZooSclxC4xJhElzUtcn8-11" style="edgeStyle=orthogonalEdgeStyle;rounded=0;orthogonalLoop=1;jettySize=auto;html=1;entryX=0.25;entryY=1;entryDx=0;entryDy=0;" edge="1" parent="1" source="ZooSclxC4xJhElzUtcn8-6" target="ZooSclxC4xJhElzUtcn8-10">
          <mxGeometry relative="1" as="geometry">
            <Array as="points">
              <mxPoint x="835" y="235" />
            </Array>
          </mxGeometry>
        </mxCell>
        <mxCell id="ZooSclxC4xJhElzUtcn8-12" value="出入库数据" style="edgeLabel;html=1;align=center;verticalAlign=middle;resizable=0;points=[];" vertex="1" connectable="0" parent="ZooSclxC4xJhElzUtcn8-11">
          <mxGeometry x="-0.3979" y="2" relative="1" as="geometry">
            <mxPoint y="-23" as="offset" />
          </mxGeometry>
        </mxCell>
        <mxCell id="ZooSclxC4xJhElzUtcn8-6" value="申请出入库" style="ellipse;whiteSpace=wrap;html=1;" vertex="1" parent="1">
          <mxGeometry x="560" y="200" width="100" height="70" as="geometry" />
        </mxCell>
        <mxCell id="ZooSclxC4xJhElzUtcn8-20" style="edgeStyle=orthogonalEdgeStyle;rounded=0;orthogonalLoop=1;jettySize=auto;html=1;entryX=0;entryY=0;entryDx=0;entryDy=0;" edge="1" parent="1" source="ZooSclxC4xJhElzUtcn8-10" target="ZooSclxC4xJhElzUtcn8-19">
          <mxGeometry relative="1" as="geometry">
            <Array as="points">
              <mxPoint x="880" y="225" />
            </Array>
          </mxGeometry>
        </mxCell>
        <mxCell id="ZooSclxC4xJhElzUtcn8-21" value="出入库目标" style="edgeLabel;html=1;align=center;verticalAlign=middle;resizable=0;points=[];" vertex="1" connectable="0" parent="ZooSclxC4xJhElzUtcn8-20">
          <mxGeometry x="0.1083" y="2" relative="1" as="geometry">
            <mxPoint x="21" y="-8" as="offset" />
          </mxGeometry>
        </mxCell>
        <mxCell id="ZooSclxC4xJhElzUtcn8-60" style="edgeStyle=orthogonalEdgeStyle;rounded=0;orthogonalLoop=1;jettySize=auto;html=1;entryX=0.5;entryY=0;entryDx=0;entryDy=0;" edge="1" parent="1" source="ZooSclxC4xJhElzUtcn8-10" target="ZooSclxC4xJhElzUtcn8-68">
          <mxGeometry relative="1" as="geometry">
            <Array as="points">
              <mxPoint x="860" y="280" />
              <mxPoint x="805" y="280" />
            </Array>
          </mxGeometry>
        </mxCell>
        <mxCell id="ZooSclxC4xJhElzUtcn8-61" value="成品入库信息" style="edgeLabel;html=1;align=center;verticalAlign=middle;resizable=0;points=[];" vertex="1" connectable="0" parent="ZooSclxC4xJhElzUtcn8-60">
          <mxGeometry x="0.3481" y="4" relative="1" as="geometry">
            <mxPoint x="-20" y="-16" as="offset" />
          </mxGeometry>
        </mxCell>
        <mxCell id="ZooSclxC4xJhElzUtcn8-10" value="出入库信息视图" style="html=1;dashed=0;whiteSpace=wrap;shape=partialRectangle;right=0;" vertex="1" parent="1">
          <mxGeometry x="810" y="110" width="100" height="30" as="geometry" />
        </mxCell>
        <mxCell id="ZooSclxC4xJhElzUtcn8-30" style="edgeStyle=orthogonalEdgeStyle;rounded=0;orthogonalLoop=1;jettySize=auto;html=1;entryX=0;entryY=0.5;entryDx=0;entryDy=0;" edge="1" parent="1" source="ZooSclxC4xJhElzUtcn8-14" target="ZooSclxC4xJhElzUtcn8-16">
          <mxGeometry relative="1" as="geometry">
            <Array as="points">
              <mxPoint x="460" y="375" />
            </Array>
          </mxGeometry>
        </mxCell>
        <mxCell id="ZooSclxC4xJhElzUtcn8-31" value="生产信息" style="edgeLabel;html=1;align=center;verticalAlign=middle;resizable=0;points=[];" vertex="1" connectable="0" parent="ZooSclxC4xJhElzUtcn8-30">
          <mxGeometry x="-0.0667" relative="1" as="geometry">
            <mxPoint x="-10" y="67" as="offset" />
          </mxGeometry>
        </mxCell>
        <mxCell id="ZooSclxC4xJhElzUtcn8-32" style="edgeStyle=orthogonalEdgeStyle;rounded=0;orthogonalLoop=1;jettySize=auto;html=1;" edge="1" parent="1" source="ZooSclxC4xJhElzUtcn8-14" target="ZooSclxC4xJhElzUtcn8-16">
          <mxGeometry relative="1" as="geometry">
            <Array as="points">
              <mxPoint x="510" y="430" />
              <mxPoint x="610" y="430" />
            </Array>
          </mxGeometry>
        </mxCell>
        <mxCell id="ZooSclxC4xJhElzUtcn8-33" value="装栈信息" style="edgeLabel;html=1;align=center;verticalAlign=middle;resizable=0;points=[];" vertex="1" connectable="0" parent="ZooSclxC4xJhElzUtcn8-32">
          <mxGeometry x="-0.7371" y="-2" relative="1" as="geometry">
            <mxPoint x="-12" y="-10" as="offset" />
          </mxGeometry>
        </mxCell>
        <mxCell id="ZooSclxC4xJhElzUtcn8-14" value="MES系统" style="rounded=0;whiteSpace=wrap;html=1;" vertex="1" parent="1">
          <mxGeometry x="450" y="520" width="120" height="50" as="geometry" />
        </mxCell>
        <mxCell id="ZooSclxC4xJhElzUtcn8-34" style="edgeStyle=orthogonalEdgeStyle;rounded=0;orthogonalLoop=1;jettySize=auto;html=1;entryX=0.5;entryY=0;entryDx=0;entryDy=0;" edge="1" parent="1" source="ZooSclxC4xJhElzUtcn8-16" target="ZooSclxC4xJhElzUtcn8-29">
          <mxGeometry relative="1" as="geometry" />
        </mxCell>
        <mxCell id="ZooSclxC4xJhElzUtcn8-16" value="成品PDA扫码入库" style="ellipse;whiteSpace=wrap;html=1;" vertex="1" parent="1">
          <mxGeometry x="560" y="340" width="100" height="70" as="geometry" />
        </mxCell>
        <mxCell id="ZooSclxC4xJhElzUtcn8-42" style="edgeStyle=orthogonalEdgeStyle;rounded=0;orthogonalLoop=1;jettySize=auto;html=1;entryX=0.5;entryY=1;entryDx=0;entryDy=0;" edge="1" parent="1" source="ZooSclxC4xJhElzUtcn8-19" target="ZooSclxC4xJhElzUtcn8-36">
          <mxGeometry relative="1" as="geometry" />
        </mxCell>
        <mxCell id="ZooSclxC4xJhElzUtcn8-44" style="edgeStyle=orthogonalEdgeStyle;rounded=0;orthogonalLoop=1;jettySize=auto;html=1;" edge="1" parent="1" source="ZooSclxC4xJhElzUtcn8-19" target="ZooSclxC4xJhElzUtcn8-43">
          <mxGeometry relative="1" as="geometry" />
        </mxCell>
        <mxCell id="ZooSclxC4xJhElzUtcn8-47" value="出入库操作实际" style="edgeLabel;html=1;align=center;verticalAlign=middle;resizable=0;points=[];" vertex="1" connectable="0" parent="ZooSclxC4xJhElzUtcn8-44">
          <mxGeometry x="-0.3333" y="3" relative="1" as="geometry">
            <mxPoint x="17" y="-12" as="offset" />
          </mxGeometry>
        </mxCell>
        <mxCell id="ZooSclxC4xJhElzUtcn8-19" value="PAD扫码出入库" style="ellipse;whiteSpace=wrap;html=1;" vertex="1" parent="1">
          <mxGeometry x="1020" y="215" width="110" height="70" as="geometry" />
        </mxCell>
        <mxCell id="ZooSclxC4xJhElzUtcn8-24" style="edgeStyle=orthogonalEdgeStyle;rounded=0;orthogonalLoop=1;jettySize=auto;html=1;entryX=0.403;entryY=0.976;entryDx=0;entryDy=0;entryPerimeter=0;" edge="1" parent="1" source="ZooSclxC4xJhElzUtcn8-23" target="ZooSclxC4xJhElzUtcn8-19">
          <mxGeometry relative="1" as="geometry">
            <Array as="points">
              <mxPoint x="970" y="383" />
              <mxPoint x="1064" y="383" />
            </Array>
          </mxGeometry>
        </mxCell>
        <mxCell id="ZooSclxC4xJhElzUtcn8-26" value="原材料库存数据" style="edgeLabel;html=1;align=center;verticalAlign=middle;resizable=0;points=[];" vertex="1" connectable="0" parent="ZooSclxC4xJhElzUtcn8-24">
          <mxGeometry x="0.13" y="-3" relative="1" as="geometry">
            <mxPoint as="offset" />
          </mxGeometry>
        </mxCell>
        <mxCell id="ZooSclxC4xJhElzUtcn8-23" value="原材料信息存储" style="html=1;dashed=0;whiteSpace=wrap;shape=partialRectangle;right=0;" vertex="1" parent="1">
          <mxGeometry x="920" y="480" width="100" height="30" as="geometry" />
        </mxCell>
        <mxCell id="ZooSclxC4xJhElzUtcn8-40" style="edgeStyle=orthogonalEdgeStyle;rounded=0;orthogonalLoop=1;jettySize=auto;html=1;entryX=0;entryY=1;entryDx=0;entryDy=0;" edge="1" parent="1" source="ZooSclxC4xJhElzUtcn8-29" target="ZooSclxC4xJhElzUtcn8-19">
          <mxGeometry relative="1" as="geometry">
            <Array as="points">
              <mxPoint x="880" y="495" />
              <mxPoint x="880" y="280" />
              <mxPoint x="1036" y="280" />
            </Array>
          </mxGeometry>
        </mxCell>
        <mxCell id="ZooSclxC4xJhElzUtcn8-41" value="成品库存数据" style="edgeLabel;html=1;align=center;verticalAlign=middle;resizable=0;points=[];" vertex="1" connectable="0" parent="ZooSclxC4xJhElzUtcn8-40">
          <mxGeometry x="-0.7218" y="2" relative="1" as="geometry">
            <mxPoint x="112" y="-233" as="offset" />
          </mxGeometry>
        </mxCell>
        <mxCell id="ZooSclxC4xJhElzUtcn8-29" value="成品库存信息存储" style="html=1;dashed=0;whiteSpace=wrap;shape=partialRectangle;right=0;" vertex="1" parent="1">
          <mxGeometry x="670" y="480" width="100" height="30" as="geometry" />
        </mxCell>
        <mxCell id="ZooSclxC4xJhElzUtcn8-36" value="出入库操作信息存储" style="html=1;dashed=0;whiteSpace=wrap;shape=partialRectangle;right=0;" vertex="1" parent="1">
          <mxGeometry x="1015" y="110" width="120" height="30" as="geometry" />
        </mxCell>
        <mxCell id="ZooSclxC4xJhElzUtcn8-46" style="edgeStyle=orthogonalEdgeStyle;rounded=0;orthogonalLoop=1;jettySize=auto;html=1;" edge="1" parent="1" source="ZooSclxC4xJhElzUtcn8-43" target="ZooSclxC4xJhElzUtcn8-45">
          <mxGeometry relative="1" as="geometry" />
        </mxCell>
        <mxCell id="ZooSclxC4xJhElzUtcn8-49" style="edgeStyle=orthogonalEdgeStyle;rounded=0;orthogonalLoop=1;jettySize=auto;html=1;entryX=0.5;entryY=1;entryDx=0;entryDy=0;" edge="1" parent="1" source="ZooSclxC4xJhElzUtcn8-43" target="ZooSclxC4xJhElzUtcn8-48">
          <mxGeometry relative="1" as="geometry" />
        </mxCell>
        <mxCell id="ZooSclxC4xJhElzUtcn8-43" value="通知ERP本单据的实际出入库情况" style="ellipse;whiteSpace=wrap;html=1;" vertex="1" parent="1">
          <mxGeometry x="1260" y="215" width="110" height="70" as="geometry" />
        </mxCell>
        <mxCell id="ZooSclxC4xJhElzUtcn8-45" value="中间表" style="html=1;dashed=0;whiteSpace=wrap;shape=partialRectangle;right=0;fillColor=#f8cecc;strokeColor=#b85450;" vertex="1" parent="1">
          <mxGeometry x="1255" y="360" width="120" height="30" as="geometry" />
        </mxCell>
        <mxCell id="ZooSclxC4xJhElzUtcn8-48" value="ERP系统" style="rounded=0;whiteSpace=wrap;html=1;" vertex="1" parent="1">
          <mxGeometry x="1390" y="60" width="120" height="50" as="geometry" />
        </mxCell>
        <mxCell id="ZooSclxC4xJhElzUtcn8-53" style="edgeStyle=orthogonalEdgeStyle;rounded=0;orthogonalLoop=1;jettySize=auto;html=1;entryX=1;entryY=0.5;entryDx=0;entryDy=0;" edge="1" parent="1" source="ZooSclxC4xJhElzUtcn8-50" target="ZooSclxC4xJhElzUtcn8-51">
          <mxGeometry relative="1" as="geometry">
            <Array as="points">
              <mxPoint x="1450" y="445" />
            </Array>
          </mxGeometry>
        </mxCell>
        <mxCell id="ZooSclxC4xJhElzUtcn8-54" value="原材料" style="edgeLabel;html=1;align=center;verticalAlign=middle;resizable=0;points=[];" vertex="1" connectable="0" parent="ZooSclxC4xJhElzUtcn8-53">
          <mxGeometry x="0.4495" y="-1" relative="1" as="geometry">
            <mxPoint as="offset" />
          </mxGeometry>
        </mxCell>
        <mxCell id="ZooSclxC4xJhElzUtcn8-50" value="供应商" style="rounded=0;whiteSpace=wrap;html=1;" vertex="1" parent="1">
          <mxGeometry x="1390" y="520" width="120" height="50" as="geometry" />
        </mxCell>
        <mxCell id="ZooSclxC4xJhElzUtcn8-57" style="edgeStyle=orthogonalEdgeStyle;rounded=0;orthogonalLoop=1;jettySize=auto;html=1;" edge="1" parent="1" source="ZooSclxC4xJhElzUtcn8-51" target="ZooSclxC4xJhElzUtcn8-56">
          <mxGeometry relative="1" as="geometry" />
        </mxCell>
        <mxCell id="ZooSclxC4xJhElzUtcn8-51" value="供应商供货" style="ellipse;whiteSpace=wrap;html=1;" vertex="1" parent="1">
          <mxGeometry x="1260" y="410" width="110" height="70" as="geometry" />
        </mxCell>
        <mxCell id="ZooSclxC4xJhElzUtcn8-58" style="edgeStyle=orthogonalEdgeStyle;rounded=0;orthogonalLoop=1;jettySize=auto;html=1;entryX=1;entryY=0.5;entryDx=0;entryDy=0;" edge="1" parent="1" source="ZooSclxC4xJhElzUtcn8-56" target="ZooSclxC4xJhElzUtcn8-23">
          <mxGeometry relative="1" as="geometry" />
        </mxCell>
        <mxCell id="ZooSclxC4xJhElzUtcn8-56" value="原材料PDA扫码入库" style="ellipse;whiteSpace=wrap;html=1;" vertex="1" parent="1">
          <mxGeometry x="1120" y="410" width="110" height="70" as="geometry" />
        </mxCell>
        <mxCell id="ZooSclxC4xJhElzUtcn8-59" value="WebService" style="ellipse;whiteSpace=wrap;html=1;" vertex="1" parent="1">
          <mxGeometry x="950" y="600" width="110" height="70" as="geometry" />
        </mxCell>
        <mxCell id="ZooSclxC4xJhElzUtcn8-64" value="" style="endArrow=classic;html=1;rounded=0;exitX=0.877;exitY=1;exitDx=0;exitDy=0;exitPerimeter=0;edgeStyle=orthogonalEdgeStyle;jumpStyle=arc;entryX=0;entryY=0.5;entryDx=0;entryDy=0;" edge="1" parent="1" source="ZooSclxC4xJhElzUtcn8-10" target="ZooSclxC4xJhElzUtcn8-65">
          <mxGeometry width="50" height="50" relative="1" as="geometry">
            <mxPoint x="990" y="200" as="sourcePoint" />
            <mxPoint x="1110" y="330" as="targetPoint" />
            <Array as="points">
              <mxPoint x="898" y="330" />
            </Array>
          </mxGeometry>
        </mxCell>
        <mxCell id="ZooSclxC4xJhElzUtcn8-67" value="原材料入库信息" style="edgeLabel;html=1;align=center;verticalAlign=middle;resizable=0;points=[];" vertex="1" connectable="0" parent="ZooSclxC4xJhElzUtcn8-64">
          <mxGeometry x="0.1673" y="-1" relative="1" as="geometry">
            <mxPoint x="11" y="-11" as="offset" />
          </mxGeometry>
        </mxCell>
        <mxCell id="ZooSclxC4xJhElzUtcn8-66" style="edgeStyle=orthogonalEdgeStyle;rounded=0;orthogonalLoop=1;jettySize=auto;html=1;" edge="1" parent="1" source="ZooSclxC4xJhElzUtcn8-65" target="ZooSclxC4xJhElzUtcn8-56">
          <mxGeometry relative="1" as="geometry" />
        </mxCell>
        <mxCell id="ZooSclxC4xJhElzUtcn8-65" value="WebService转发" style="ellipse;whiteSpace=wrap;html=1;fillColor=#f8cecc;strokeColor=#b85450;" vertex="1" parent="1">
          <mxGeometry x="1120" y="300" width="110" height="60" as="geometry" />
        </mxCell>
        <mxCell id="ZooSclxC4xJhElzUtcn8-69" style="edgeStyle=orthogonalEdgeStyle;rounded=0;orthogonalLoop=1;jettySize=auto;html=1;entryX=0.5;entryY=0;entryDx=0;entryDy=0;" edge="1" parent="1" source="ZooSclxC4xJhElzUtcn8-68" target="ZooSclxC4xJhElzUtcn8-16">
          <mxGeometry relative="1" as="geometry">
            <Array as="points">
              <mxPoint x="705" y="360" />
              <mxPoint x="705" y="320" />
              <mxPoint x="610" y="320" />
            </Array>
          </mxGeometry>
        </mxCell>
        <mxCell id="ZooSclxC4xJhElzUtcn8-68" value="WebService转发" style="ellipse;whiteSpace=wrap;html=1;fillColor=#f8cecc;strokeColor=#b85450;" vertex="1" parent="1">
          <mxGeometry x="750" y="345" width="110" height="60" as="geometry" />
        </mxCell>
      </root>
    </mxGraphModel>
  </diagram>
</mxfile>
